<svg width="1741" height="584" viewBox="0 0 1741 584" fill="none" xmlns="http://www.w3.org/2000/svg">
<path d="M722.57 404.446C711.681 404.446 702.102 403.323 693.833 401.116C685.564 398.908 678.716 395.69 673.253 391.424C667.791 387.159 663.675 382.145 660.868 376.308C658.025 370.471 656.64 363.81 656.64 356.364V353.483C656.64 352.585 656.752 351.837 656.939 351.201H683.244C683.057 352.024 682.945 352.697 682.945 353.296V355.129C683.132 362.201 685.003 367.739 688.52 371.743C692.037 375.784 696.939 378.59 703.187 380.199C709.436 381.808 716.396 382.631 724.066 382.631C730.727 382.631 736.863 381.771 742.513 380.049C748.163 378.328 752.653 375.709 755.984 372.192C759.314 368.675 760.96 364.184 760.96 358.721C760.96 352.061 758.79 346.972 754.45 343.455C750.109 339.938 744.422 337.169 737.35 335.148C730.278 333.128 722.944 331.033 715.273 328.787C708.838 326.954 702.364 324.971 695.929 322.726C689.493 320.518 683.693 317.787 678.529 314.569C673.403 311.351 669.25 307.16 666.144 302.034C663.001 296.908 661.467 290.397 661.467 282.539C661.467 275.467 662.926 269.219 665.845 263.793C668.763 258.368 672.954 253.728 678.38 249.874C683.805 246.057 690.428 243.176 698.174 241.268C705.919 239.36 714.562 238.387 724.029 238.387C734.094 238.387 742.925 239.509 750.483 241.717C758.042 243.925 764.328 247.068 769.379 251.109C774.43 255.15 778.135 259.715 780.567 264.878C782.999 270.005 784.196 275.505 784.196 281.342V284.822C784.196 285.944 784.084 286.805 783.897 287.404H757.892V284.074C757.892 280.032 756.844 276.178 754.711 272.437C752.579 268.695 748.949 265.702 743.823 263.382C738.697 261.062 731.587 259.902 722.495 259.902C716.658 259.902 711.606 260.351 707.378 261.249C703.15 262.147 699.633 263.569 696.789 265.477C693.983 267.385 691.85 269.593 690.428 272.137C689.006 274.644 688.295 277.525 688.295 280.743C688.295 285.982 690.017 290.023 693.422 292.829C696.864 295.636 701.429 297.955 707.191 299.789C712.953 301.585 719.127 303.605 725.788 305.851C732.86 307.871 740.044 309.929 747.415 312.062C754.786 314.157 761.521 316.851 767.658 320.069C773.794 323.287 778.733 327.665 782.475 333.24C786.217 338.778 788.088 346.074 788.088 355.167C788.088 363.623 786.479 370.994 783.261 377.243C780.043 383.492 775.441 388.618 769.491 392.659C763.542 396.7 756.582 399.656 748.612 401.565C740.642 403.473 731.924 404.446 722.458 404.446H722.57Z" fill="black"/>
<path d="M821.127 209.201V184.805C821.127 183.345 822.287 182.186 823.747 182.186H845.112C846.571 182.186 847.731 183.345 847.731 184.805V209.201C847.731 210.66 846.571 211.82 845.112 211.82H823.747C822.287 211.82 821.127 210.66 821.127 209.201ZM821.127 398.197V244.373C821.127 242.914 822.287 241.754 823.747 241.754H845.112C846.571 241.754 847.731 242.914 847.731 244.373V398.197C847.731 399.656 846.571 400.816 845.112 400.816H823.747C822.287 400.816 821.127 399.656 821.127 398.197Z" fill="black"/>
<path d="M943.296 404.446C930.2 404.446 918.937 401.527 909.583 395.69C900.228 389.853 892.969 380.723 887.806 368.338C882.679 355.953 880.098 339.863 880.098 320.107C880.098 300.35 882.717 285.944 887.955 273.859C893.194 261.773 900.453 252.793 909.732 246.955C919.012 241.118 929.788 238.2 942.098 238.2C949.17 238.2 955.718 239.023 961.743 240.632C967.804 242.241 973.192 244.785 977.907 248.19C982.622 251.633 986.812 256.16 990.442 261.81H992.275V184.88C992.275 183.42 993.435 182.26 994.895 182.26H1016.26C1017.72 182.26 1018.88 183.42 1018.88 184.88V398.272C1018.88 399.731 1017.72 400.891 1016.26 400.891H999.759C998.412 400.891 997.289 399.881 997.177 398.571L995.007 378.216H992.874C987.449 387.084 980.377 393.707 971.696 398.01C963.015 402.35 953.548 404.521 943.258 404.521L943.296 404.446ZM949.657 381.172C959.722 381.172 967.917 378.964 974.165 374.512C980.414 370.096 985.016 363.623 987.935 355.167C990.854 346.711 992.313 336.234 992.313 323.699V318.872C992.313 307.983 991.19 298.816 988.983 291.37C986.775 283.924 983.744 277.975 979.928 273.522C976.111 269.107 971.658 265.964 966.607 264.13C961.556 262.334 956.205 261.399 950.592 261.399C940.714 261.399 932.632 263.382 926.383 267.311C920.134 271.239 915.495 277.376 912.464 285.757C909.433 294.139 907.936 304.953 907.936 318.273V324.634C907.936 338.329 909.545 349.367 912.763 357.749C915.981 366.13 920.658 372.117 926.832 375.747C932.969 379.376 940.602 381.172 949.657 381.172Z" fill="black"/>
<path d="M1119.38 404.446C1103.67 404.446 1090.38 401.452 1079.61 395.54C1068.83 389.591 1060.67 380.461 1055.1 368.188C1049.56 355.915 1046.79 340.275 1046.79 321.304C1046.79 302.333 1049.56 286.468 1055.1 274.27C1060.64 262.072 1068.87 253.017 1079.76 247.067C1090.65 241.118 1104.27 238.162 1120.58 238.162C1135.51 238.162 1148.01 241.043 1158.07 246.768C1168.14 252.53 1175.77 261.099 1180.9 272.474C1186.02 283.849 1188.6 298.142 1188.6 315.28V325.382C1188.6 326.842 1187.44 328.002 1185.99 328.002H1077.03C1075.53 328.002 1074.33 329.274 1074.41 330.77C1074.97 342.22 1076.8 351.724 1079.91 359.32C1083.24 367.477 1088.21 373.426 1094.87 377.168C1101.53 380.91 1109.88 382.743 1119.98 382.743C1126.83 382.743 1132.82 381.883 1137.98 380.162C1143.11 378.44 1147.45 375.971 1151 372.753C1154.52 369.535 1157.21 365.681 1159.01 361.266C1160.54 357.524 1161.48 353.483 1161.89 349.18C1162 347.833 1163.09 346.748 1164.47 346.748H1185.31C1186.81 346.748 1188.04 348.02 1187.93 349.517C1187.48 356.925 1185.91 363.81 1183.22 370.171C1180.19 377.318 1175.77 383.417 1169.9 388.468C1164.06 393.52 1156.87 397.449 1148.42 400.255C1139.96 403.061 1130.27 404.483 1119.38 404.483V404.446ZM1077.81 307.983H1158.45C1159.91 307.983 1161.1 306.748 1161.07 305.289C1160.88 297.581 1159.87 291.033 1158.07 285.608C1156.05 279.546 1153.17 274.607 1149.47 270.79C1145.72 266.974 1141.38 264.205 1136.48 262.484C1131.54 260.762 1125.93 259.902 1119.68 259.902C1110.4 259.902 1102.54 261.623 1096.11 265.028C1089.67 268.47 1084.73 273.709 1081.29 280.743C1078.15 287.179 1076.13 295.299 1075.19 305.065C1075.04 306.599 1076.28 307.946 1077.81 307.946V307.983Z" fill="black"/>
<path d="M1272.31 404.446C1262.24 404.446 1254.05 402.612 1247.8 399.02C1241.55 395.391 1237.02 390.489 1234.18 384.353C1231.34 378.216 1229.95 371.406 1229.95 363.923V276.74C1229.95 275.28 1228.79 274.12 1227.33 274.12H1212.89C1211.43 274.12 1210.27 272.961 1210.27 271.501V244.374C1210.27 242.914 1211.43 241.754 1212.89 241.754H1229.24C1230.51 241.754 1231.6 240.856 1231.82 239.584L1247.91 198.575C1248.14 197.34 1249.22 196.404 1250.49 196.404H1269.35C1270.81 196.404 1271.97 197.564 1271.97 199.024V239.173C1271.97 240.632 1273.13 241.792 1274.59 241.792H1298.39C1299.85 241.792 1301.01 242.952 1301.01 244.411V271.539C1301.01 272.998 1299.85 274.158 1298.39 274.158H1274.59C1273.13 274.158 1271.97 275.318 1271.97 276.777V357C1271.97 361.827 1273.09 365.531 1275.3 368.038C1277.51 370.545 1281.14 371.818 1286.19 371.818H1298.39C1299.85 371.818 1301.01 372.978 1301.01 374.437V397.711C1301.01 398.871 1300.3 399.881 1299.17 400.218C1297.19 400.816 1294.98 401.378 1292.51 401.901C1289.3 402.612 1285.85 403.211 1282.22 403.735C1278.59 404.221 1275.26 404.483 1272.23 404.483L1272.31 404.446Z" fill="black"/>
<path d="M1401.4 404.446C1384.07 404.446 1369.33 401.452 1357.25 395.54C1345.16 389.591 1335.96 380.424 1329.74 368.038C1323.5 355.653 1320.35 340.05 1320.35 321.304C1320.35 302.558 1323.5 286.468 1329.74 274.27C1335.99 262.072 1345.16 253.017 1357.25 247.067C1369.33 241.118 1384.04 238.162 1401.4 238.162C1418.76 238.162 1433.99 241.156 1446 247.067C1458.01 253.017 1467.1 262.072 1473.35 274.27C1479.6 286.468 1482.74 302.146 1482.74 321.304C1482.74 340.462 1479.6 355.616 1473.35 368.038C1467.1 380.424 1457.97 389.591 1446 395.54C1433.99 401.49 1419.13 404.446 1401.4 404.446ZM1401.4 371.78C1410.68 371.78 1418.09 370.059 1423.62 366.654C1429.16 363.211 1433.24 357.973 1435.86 350.939C1438.48 343.904 1439.79 335.223 1439.79 324.933V317.674C1439.79 307.385 1438.48 298.741 1435.86 291.669C1433.24 284.597 1429.16 279.321 1423.62 275.804C1418.09 272.287 1410.68 270.528 1401.4 270.528C1392.12 270.528 1385.01 272.287 1379.47 275.804C1373.93 279.321 1369.86 284.635 1367.24 291.669C1364.62 298.741 1363.31 307.385 1363.31 317.674V324.933C1363.31 335.223 1364.62 343.867 1367.24 350.939C1369.86 358.01 1373.93 363.249 1379.47 366.654C1385.01 370.096 1392.34 371.78 1401.4 371.78Z" fill="black"/>
<path d="M1586.76 404.446C1569.44 404.446 1554.7 401.452 1542.61 395.54C1530.53 389.591 1521.32 380.424 1515.11 368.038C1508.86 355.653 1505.72 340.05 1505.72 321.304C1505.72 302.558 1508.86 286.468 1515.11 274.27C1521.36 262.072 1530.53 253.017 1542.61 247.067C1554.7 241.118 1569.4 238.162 1586.76 238.162C1604.13 238.162 1619.36 241.156 1631.37 247.067C1643.38 253.017 1652.47 262.072 1658.72 274.27C1664.97 286.468 1668.11 302.146 1668.11 321.304C1668.11 340.462 1664.97 355.616 1658.72 368.038C1652.47 380.424 1643.34 389.591 1631.37 395.54C1619.36 401.49 1604.5 404.446 1586.76 404.446ZM1586.76 371.78C1596.04 371.78 1603.45 370.059 1608.99 366.654C1614.53 363.211 1618.61 357.973 1621.23 350.939C1623.85 343.904 1625.15 335.223 1625.15 324.933V317.674C1625.15 307.385 1623.85 298.741 1621.23 291.669C1618.61 284.597 1614.53 279.321 1608.99 275.804C1603.45 272.287 1596.04 270.528 1586.76 270.528C1577.49 270.528 1570.38 272.287 1564.84 275.804C1559.3 279.321 1555.22 284.635 1552.6 291.669C1549.98 298.741 1548.67 307.385 1548.67 317.674V324.933C1548.67 335.223 1549.98 343.867 1552.6 350.939C1555.22 358.01 1559.3 363.249 1564.84 366.654C1570.38 370.096 1577.71 371.78 1586.76 371.78Z" fill="black"/>
<path d="M1698.94 398.197V184.805C1698.94 183.345 1700.1 182.186 1701.56 182.186H1738.38C1739.84 182.186 1741 183.345 1741 184.805V398.197C1741 399.656 1739.84 400.816 1738.38 400.816H1701.56C1700.1 400.816 1698.94 399.656 1698.94 398.197Z" fill="black"/>
<mask id="path-9-inside-1_231_33" fill="white">
<path fill-rule="evenodd" clip-rule="evenodd" d="M0 291.857C0 51.517 51.5063 0 291.857 0C532.207 0 583.713 51.517 583.713 291.857C583.713 532.196 532.207 583.713 291.857 583.713C51.5063 583.713 0 532.196 0 291.857ZM401.116 486.053C384.241 495.894 364.409 503.752 345.514 508.728L292.006 373.389L238.05 508.728C228.621 506.184 217.583 502.405 208.565 498.626C207.145 498.034 205.728 497.452 204.318 496.873L204.312 496.87L204.312 496.87C196.809 493.788 189.464 490.771 182.411 486.615L227.723 373.202C230.417 366.654 234.945 361.079 240.782 357.15C246.619 353.221 254.552 351.5 261.586 351.463L321.828 351.126C328.938 351.126 336.945 353.072 342.857 357.038C348.769 361.004 353.371 366.654 356.103 373.277L401.116 486.053ZM345.813 74.835C364.708 79.8116 384.54 87.6692 401.415 97.51V97.5475L356.402 210.324C353.67 216.947 349.068 222.597 343.156 226.563C337.244 230.529 329.237 232.475 322.127 232.475L261.885 232.138C254.851 232.101 246.918 230.38 241.081 226.451C235.244 222.522 230.716 216.947 228.022 210.399L182.148 98.1461C190.53 93.1696 199.884 88.6795 208.864 84.9378C217.882 81.1586 228.92 77.3794 238.349 74.835L292.306 210.174L345.813 74.835ZM486.054 182.448C495.895 199.323 503.753 219.154 508.729 238.05L373.39 291.557L508.729 345.513C506.185 354.943 502.405 365.981 498.626 374.998C498.034 376.421 497.451 377.839 496.871 379.252L496.871 379.252C493.789 386.755 490.772 394.1 486.615 401.153L373.203 355.841C366.655 353.147 361.079 348.619 357.151 342.782C353.222 336.945 351.501 329.012 351.463 321.978L351.126 261.736C351.126 254.626 353.072 246.619 357.038 240.707C361.005 234.795 366.655 230.193 373.278 227.461L486.054 182.448ZM74.835 237.751C79.8115 218.855 87.6692 199.024 97.51 182.149L210.324 227.162C216.947 229.894 222.597 234.496 226.563 240.408C230.529 246.32 232.475 254.327 232.475 261.436L232.138 321.679C232.101 328.713 230.38 336.646 226.451 342.483C222.522 348.32 216.947 352.848 210.399 355.542L98.1461 401.415C93.1696 393.034 88.6795 383.68 84.9377 374.699C81.1586 365.682 77.3794 354.644 74.835 345.214L210.174 291.258L74.835 237.751Z"/>
</mask>
<path fill-rule="evenodd" clip-rule="evenodd" d="M0 291.857C0 51.517 51.5063 0 291.857 0C532.207 0 583.713 51.517 583.713 291.857C583.713 532.196 532.207 583.713 291.857 583.713C51.5063 583.713 0 532.196 0 291.857ZM401.116 486.053C384.241 495.894 364.409 503.752 345.514 508.728L292.006 373.389L238.05 508.728C228.621 506.184 217.583 502.405 208.565 498.626C207.145 498.034 205.728 497.452 204.318 496.873L204.312 496.87L204.312 496.87C196.809 493.788 189.464 490.771 182.411 486.615L227.723 373.202C230.417 366.654 234.945 361.079 240.782 357.15C246.619 353.221 254.552 351.5 261.586 351.463L321.828 351.126C328.938 351.126 336.945 353.072 342.857 357.038C348.769 361.004 353.371 366.654 356.103 373.277L401.116 486.053ZM345.813 74.835C364.708 79.8116 384.54 87.6692 401.415 97.51V97.5475L356.402 210.324C353.67 216.947 349.068 222.597 343.156 226.563C337.244 230.529 329.237 232.475 322.127 232.475L261.885 232.138C254.851 232.101 246.918 230.38 241.081 226.451C235.244 222.522 230.716 216.947 228.022 210.399L182.148 98.1461C190.53 93.1696 199.884 88.6795 208.864 84.9378C217.882 81.1586 228.92 77.3794 238.349 74.835L292.306 210.174L345.813 74.835ZM486.054 182.448C495.895 199.323 503.753 219.154 508.729 238.05L373.39 291.557L508.729 345.513C506.185 354.943 502.405 365.981 498.626 374.998C498.034 376.421 497.451 377.839 496.871 379.252L496.871 379.252C493.789 386.755 490.772 394.1 486.615 401.153L373.203 355.841C366.655 353.147 361.079 348.619 357.151 342.782C353.222 336.945 351.501 329.012 351.463 321.978L351.126 261.736C351.126 254.626 353.072 246.619 357.038 240.707C361.005 234.795 366.655 230.193 373.278 227.461L486.054 182.448ZM74.835 237.751C79.8115 218.855 87.6692 199.024 97.51 182.149L210.324 227.162C216.947 229.894 222.597 234.496 226.563 240.408C230.529 246.32 232.475 254.327 232.475 261.436L232.138 321.679C232.101 328.713 230.38 336.646 226.451 342.483C222.522 348.32 216.947 352.848 210.399 355.542L98.1461 401.415C93.1696 393.034 88.6795 383.68 84.9377 374.699C81.1586 365.682 77.3794 354.644 74.835 345.214L210.174 291.258L74.835 237.751Z" fill="black"/>
<path d="M345.514 508.728L344.584 509.096L344.91 509.922L345.768 509.695L345.514 508.728ZM401.116 486.053L401.62 486.917L402.364 486.483L402.045 485.683L401.116 486.053ZM292.006 373.389L292.936 373.022L292.01 370.679L291.078 373.019L292.006 373.389ZM238.05 508.728L237.79 509.694L238.65 509.926L238.979 509.099L238.05 508.728ZM208.565 498.626L208.952 497.703L208.95 497.703L208.565 498.626ZM204.318 496.873L203.934 497.796L203.938 497.798L204.318 496.873ZM204.312 496.87L204.696 495.947L204.663 495.933L204.628 495.922L204.312 496.87ZM204.312 496.87L203.932 497.795L203.963 497.808L203.995 497.819L204.312 496.87ZM182.411 486.615L181.482 486.244L181.164 487.041L181.903 487.476L182.411 486.615ZM227.723 373.202L226.798 372.822L226.795 372.831L227.723 373.202ZM240.782 357.15L241.34 357.98L240.782 357.15ZM261.586 351.463L261.591 352.463L261.592 352.463L261.586 351.463ZM321.828 351.126V350.126L321.823 350.126L321.828 351.126ZM342.857 357.038L342.3 357.868L342.857 357.038ZM356.103 373.277L357.031 372.906L357.027 372.896L356.103 373.277ZM401.415 97.51H402.415V96.9356L401.919 96.6462L401.415 97.51ZM345.813 74.835L346.067 73.868L345.209 73.642L344.883 74.4674L345.813 74.835ZM401.415 97.5475L402.344 97.9182L402.415 97.7397V97.5475H401.415ZM356.402 210.324L357.326 210.705L357.331 210.695L356.402 210.324ZM343.156 226.563L343.713 227.394L343.156 226.563ZM322.127 232.475L322.122 233.475H322.127V232.475ZM261.885 232.138L261.891 231.138H261.89L261.885 232.138ZM241.081 226.451L240.523 227.28L241.081 226.451ZM228.022 210.399L227.097 210.777L227.097 210.779L228.022 210.399ZM182.148 98.1461L181.638 97.2863L180.897 97.7264L181.223 98.5244L182.148 98.1461ZM208.864 84.9378L209.249 85.8608L209.251 85.86L208.864 84.9378ZM238.349 74.835L239.278 74.4647L238.949 73.6376L238.089 73.8696L238.349 74.835ZM292.306 210.174L291.377 210.545L292.309 212.884L293.236 210.542L292.306 210.174ZM508.729 238.05L509.097 238.98L509.922 238.654L509.696 237.796L508.729 238.05ZM486.054 182.448L486.918 181.944L486.484 181.2L485.683 181.519L486.054 182.448ZM373.39 291.557L373.022 290.627L370.68 291.553L373.02 292.486L373.39 291.557ZM508.729 345.513L509.694 345.774L509.926 344.914L509.099 344.585L508.729 345.513ZM498.626 374.998L497.704 374.612L497.703 374.614L498.626 374.998ZM496.871 379.252L495.946 378.872L495.933 378.903L495.922 378.935L496.871 379.252ZM496.871 379.252L497.796 379.632L497.809 379.601L497.819 379.568L496.871 379.252ZM486.615 401.153L486.244 402.082L487.041 402.4L487.477 401.661L486.615 401.153ZM373.203 355.841L372.822 356.766L372.832 356.769L373.203 355.841ZM357.151 342.782L357.98 342.224L357.151 342.782ZM351.463 321.978L352.463 321.973L352.463 321.972L351.463 321.978ZM351.126 261.736H350.126L350.126 261.741L351.126 261.736ZM373.278 227.461L372.907 226.532L372.896 226.537L373.278 227.461ZM97.51 182.149L97.8806 181.22L97.0803 180.901L96.6462 181.645L97.51 182.149ZM74.835 237.751L73.868 237.497L73.6419 238.355L74.4673 238.681L74.835 237.751ZM210.324 227.162L210.705 226.238L210.694 226.233L210.324 227.162ZM226.563 240.408L225.733 240.965L226.563 240.408ZM232.475 261.436L233.475 261.442V261.436H232.475ZM232.138 321.679L231.138 321.673V321.673L232.138 321.679ZM226.451 342.483L225.621 341.924L226.451 342.483ZM210.399 355.542L210.777 356.467L210.779 356.466L210.399 355.542ZM98.1461 401.415L97.2863 401.926L97.7264 402.667L98.5244 402.341L98.1461 401.415ZM84.9377 374.699L85.8608 374.315L85.86 374.313L84.9377 374.699ZM74.835 345.214L74.4647 344.285L73.6376 344.615L73.8695 345.475L74.835 345.214ZM210.174 291.258L210.545 292.187L212.884 291.254L210.542 290.328L210.174 291.258ZM291.857 -1C231.746 -1 183.375 2.21973 144.639 10.8287C105.892 19.4401 76.7258 33.4572 55.0898 55.0939C33.4538 76.7305 19.4378 105.897 10.8271 144.644C2.21906 183.379 -1 231.749 -1 291.857H1C1 231.795 4.21922 183.598 12.7795 145.078C21.3373 106.569 35.2197 77.7931 56.5041 56.5081C77.7884 35.223 106.564 21.3396 145.073 12.781C183.594 4.21989 231.792 1 291.857 1V-1ZM584.713 291.857C584.713 231.749 581.494 183.379 572.886 144.644C564.276 105.897 550.26 76.7305 528.624 55.0939C506.988 33.4572 477.821 19.4401 439.074 10.8287C400.339 2.21973 351.967 -1 291.857 -1V1C351.921 1 400.12 4.21989 438.64 12.781C477.149 21.3396 505.925 35.223 527.209 56.5081C548.494 77.7931 562.376 106.569 570.934 145.078C579.494 183.598 582.713 231.795 582.713 291.857H584.713ZM291.857 584.713C351.967 584.713 400.339 581.494 439.074 572.885C477.821 564.273 506.988 550.256 528.624 528.62C550.26 506.983 564.276 477.816 572.886 439.07C581.494 400.335 584.713 351.964 584.713 291.857H582.713C582.713 351.919 579.494 400.116 570.934 438.636C562.376 477.144 548.494 505.92 527.209 527.205C505.925 548.49 477.149 562.374 438.64 570.932C400.12 579.493 351.921 582.713 291.857 582.713V584.713ZM-1 291.857C-1 351.964 2.21906 400.335 10.8271 439.07C19.4378 477.816 33.4538 506.983 55.0898 528.62C76.7258 550.256 105.892 564.273 144.639 572.885C183.375 581.494 231.746 584.713 291.857 584.713V582.713C231.792 582.713 183.594 579.493 145.073 570.932C106.564 562.374 77.7884 548.49 56.5041 527.205C35.2197 505.92 21.3373 477.144 12.7795 438.636C4.21922 400.116 1 351.919 1 291.857H-1ZM345.768 509.695C364.74 504.699 384.657 496.809 401.62 486.917L400.612 485.19C383.824 494.98 364.078 502.805 345.259 507.761L345.768 509.695ZM291.077 373.757L344.584 509.096L346.443 508.361L292.936 373.022L291.077 373.757ZM238.979 509.099L292.935 373.76L291.078 373.019L237.122 508.358L238.979 509.099ZM208.179 499.548C217.238 503.344 228.318 507.138 237.79 509.694L238.311 507.763C228.924 505.23 217.928 501.465 208.952 497.703L208.179 499.548ZM203.938 497.798C205.349 498.377 206.763 498.958 208.181 499.549L208.95 497.703C207.526 497.109 206.108 496.527 204.698 495.948L203.938 497.798ZM203.928 497.794L203.934 497.796L204.702 495.949L204.696 495.947L203.928 497.794ZM203.995 497.819L203.996 497.819L204.628 495.922L204.628 495.921L203.995 497.819ZM181.903 487.476C189.028 491.675 196.439 494.717 203.932 497.795L204.692 495.945C197.179 492.859 189.9 489.868 182.918 485.753L181.903 487.476ZM226.795 372.831L181.482 486.244L183.339 486.986L228.652 373.573L226.795 372.831ZM240.223 356.32C234.221 360.361 229.567 366.093 226.798 372.822L228.648 373.583C231.268 367.215 235.669 361.797 241.34 357.98L240.223 356.32ZM261.581 350.463C254.419 350.501 246.274 352.248 240.223 356.32L241.34 357.98C246.964 354.194 254.684 352.499 261.591 352.463L261.581 350.463ZM321.823 350.126L261.58 350.463L261.592 352.463L321.834 352.126L321.823 350.126ZM343.414 356.207C337.303 352.108 329.09 350.126 321.828 350.126V352.126C328.785 352.126 336.587 354.035 342.3 357.868L343.414 356.207ZM357.027 372.896C354.221 366.092 349.492 360.285 343.414 356.207L342.3 357.868C348.046 361.723 352.521 367.216 355.178 373.658L357.027 372.896ZM402.045 485.683L357.031 372.906L355.174 373.648L400.187 486.424L402.045 485.683ZM401.919 96.6462C384.956 86.7546 365.04 78.8647 346.067 73.868L345.558 75.8021C364.377 80.7585 384.123 88.5839 400.911 98.3739L401.919 96.6462ZM402.415 97.5475V97.51H400.415V97.5475H402.415ZM357.331 210.695L402.344 97.9182L400.486 97.1768L355.473 209.953L357.331 210.695ZM343.713 227.394C349.791 223.316 354.52 217.509 357.326 210.705L355.477 209.943C352.82 216.385 348.345 221.878 342.599 225.733L343.713 227.394ZM322.127 233.475C329.389 233.475 337.602 231.493 343.713 227.394L342.599 225.733C336.886 229.565 329.084 231.475 322.127 231.475V233.475ZM261.88 233.138L322.122 233.475L322.133 231.475L261.891 231.138L261.88 233.138ZM240.523 227.28C246.573 231.353 254.718 233.1 261.88 233.138L261.89 231.138C254.983 231.102 247.263 229.407 241.639 225.621L240.523 227.28ZM227.097 210.779C229.866 217.508 234.52 223.24 240.523 227.28L241.639 225.621C235.968 221.804 231.567 216.386 228.947 210.018L227.097 210.779ZM181.223 98.5244L227.097 210.777L228.948 210.02L183.074 97.7679L181.223 98.5244ZM208.48 84.0147C199.468 87.7695 190.07 92.2799 181.638 97.2863L182.659 99.006C190.99 94.0593 200.3 89.5895 209.249 85.8608L208.48 84.0147ZM238.089 73.8696C228.617 76.4255 217.537 80.219 208.478 84.0155L209.251 85.86C218.227 82.0981 229.223 78.3334 238.61 75.8005L238.089 73.8696ZM293.234 209.804L239.278 74.4647L237.421 75.2054L291.377 210.545L293.234 209.804ZM344.883 74.4674L291.376 209.807L293.236 210.542L346.743 75.2027L344.883 74.4674ZM509.696 237.796C504.699 218.823 496.81 198.907 486.918 181.944L485.19 182.952C494.98 199.74 502.806 219.486 507.762 238.305L509.696 237.796ZM373.758 292.487L509.097 238.98L508.361 237.12L373.022 290.627L373.758 292.487ZM509.099 344.585L373.76 290.628L373.02 292.486L508.359 346.442L509.099 344.585ZM499.549 375.385C503.345 366.326 507.139 355.246 509.694 345.774L507.764 345.253C505.231 354.639 501.466 365.636 497.704 374.612L499.549 375.385ZM497.796 379.632C498.376 378.219 498.958 376.803 499.549 375.383L497.703 374.614C497.109 376.039 496.526 377.46 495.946 378.872L497.796 379.632ZM497.819 379.568L497.82 379.568L495.922 378.935L495.922 378.936L497.819 379.568ZM487.477 401.661C491.676 394.536 494.718 387.125 497.796 379.632L495.946 378.872C492.86 386.385 489.868 393.664 485.754 400.646L487.477 401.661ZM372.832 356.769L486.244 402.082L486.986 400.225L373.574 354.912L372.832 356.769ZM356.321 343.34C360.361 349.343 366.094 353.997 372.822 356.765L373.583 354.916C367.216 352.296 361.798 347.895 357.98 342.224L356.321 343.34ZM350.463 321.983C350.501 329.145 352.249 337.29 356.321 343.34L357.98 342.224C354.195 336.6 352.5 328.88 352.463 321.973L350.463 321.983ZM350.126 261.741L350.463 321.983L352.463 321.972L352.126 261.73L350.126 261.741ZM356.208 240.15C352.108 246.261 350.126 254.474 350.126 261.736H352.126C352.126 254.779 354.036 246.977 357.869 241.264L356.208 240.15ZM372.896 226.537C366.093 229.343 360.285 234.072 356.208 240.15L357.869 241.264C361.724 235.518 367.217 231.043 373.659 228.386L372.896 226.537ZM485.683 181.519L372.907 226.532L373.648 228.39L486.425 183.377L485.683 181.519ZM96.6462 181.645C86.7545 198.607 78.8646 218.524 73.868 237.497L75.802 238.006C80.7584 219.186 88.5839 199.441 98.3739 182.652L96.6462 181.645ZM210.694 226.233L97.8806 181.22L97.1394 183.078L209.953 228.091L210.694 226.233ZM227.393 239.851C223.316 233.773 217.509 229.044 210.705 226.238L209.943 228.087C216.385 230.743 221.878 235.219 225.733 240.965L227.393 239.851ZM233.475 261.436C233.475 254.174 231.493 245.962 227.393 239.851L225.733 240.965C229.565 246.678 231.475 254.48 231.475 261.436H233.475ZM233.138 321.684L233.475 261.442L231.475 261.431L231.138 321.673L233.138 321.684ZM227.28 343.041C231.353 336.991 233.1 328.846 233.138 321.684L231.138 321.673C231.102 328.581 229.407 336.301 225.621 341.924L227.28 343.041ZM210.779 356.466C217.508 353.698 223.24 349.044 227.28 343.041L225.621 341.924C221.804 347.596 216.386 351.997 210.018 354.617L210.779 356.466ZM98.5244 402.341L210.777 356.467L210.02 354.616L97.7678 400.49L98.5244 402.341ZM84.0147 375.084C87.7695 384.096 92.2799 393.494 97.2863 401.926L99.006 400.905C94.0593 392.574 89.5895 383.264 85.8608 374.315L84.0147 375.084ZM73.8695 345.475C76.4254 354.947 80.219 366.027 84.0155 375.086L85.86 374.313C82.0981 365.336 78.3333 354.34 75.8005 344.954L73.8695 345.475ZM209.804 290.329L74.4647 344.285L75.2053 346.143L210.545 292.187L209.804 290.329ZM74.4673 238.681L209.807 292.188L210.542 290.328L75.2027 236.821L74.4673 238.681Z" fill="black" mask="url(#path-9-inside-1_231_33)"/>
</svg>
